<?xml version="1.0" encoding="UTF-8"?>
<svg width="128px" height="128px" viewBox="0 0 128 128" version="1.1" xmlns="http://www.w3.org/2000/svg" xmlns:xlink="http://www.w3.org/1999/xlink">
    <!-- Generator: Sketch 51.1 (57501) - http://www.bohemiancoding.com/sketch -->
    <title>Icon v1.2</title>
    <desc>Created with Sketch.</desc>
    <defs>
        <radialGradient cx="0%" cy="0%" fx="0%" fy="0%" r="141.421356%" id="radialGradient-1">
            <stop stop-color="#F5519C" offset="0%"></stop>
            <stop stop-color="#9F0473" offset="100%"></stop>
        </radialGradient>
    </defs>
    <g id="Icons" stroke="none" stroke-width="1" fill="none" fill-rule="evenodd">
        <g transform="translate(-302.000000, -408.000000)" id="Gradient-BG-Copy-2">
            <g transform="translate(302.000000, 239.000000)">
                <g id="Icon-v1.2" transform="translate(0.000000, 169.000000)">
                    <rect id="Rectangle-5" fill="url(#radialGradient-1)" x="0" y="0" width="128" height="128" rx="15"></rect>
                    <g id="[" transform="translate(25.000000, 23.000000)" fill="#FFFFFF">
                        <path d="M25,3 L25,3 C25,4.65685425 23.6568542,6 22,6 L0,6 L0,2 C-1.3527075e-16,0.8954305 0.8954305,2.02906125e-16 2,0 L22,0 C23.6568542,-3.04359188e-16 25,1.34314575 25,3 Z" id="Path-2"></path>
                        <path d="M25,75 L25,75 C25,76.6568542 23.6568542,78 22,78 L0,78 L0,74 C-1.3527075e-16,72.8954305 0.8954305,72 2,72 L22,72 C23.6568542,72 25,73.3431458 25,75 Z" id="Path-2-Copy" transform="translate(12.500000, 75.000000) scale(1, -1) translate(-12.500000, -75.000000) "></path>
                        <polygon id="Path-3" points="0 4 6 4 6 74 0 74"></polygon>
                    </g>
                    <g id="]" transform="translate(90.500000, 62.000000) scale(-1, 1) translate(-90.500000, -62.000000) translate(78.000000, 23.000000)" fill="#FFFFFF">
                        <path d="M25,3 L25,3 C25,4.65685425 23.6568542,6 22,6 L0,6 L0,2 C-1.3527075e-16,0.8954305 0.8954305,2.02906125e-16 2,0 L22,0 C23.6568542,-3.04359188e-16 25,1.34314575 25,3 Z" id="Path-2"></path>
                        <polygon id="Path-3-Copy" points="0 5 6 5 6 75 0 75"></polygon>
                        <path d="M25,75 L25,75 C25,76.6568542 23.6568542,78 22,78 L0,78 L0,74 C-1.3527075e-16,72.8954305 0.8954305,72 2,72 L22,72 C23.6568542,72 25,73.3431458 25,75 Z" id="Path-2-Copy" transform="translate(12.500000, 75.000000) scale(1, -1) translate(-12.500000, -75.000000) "></path>
                    </g>
                    <g id="globe-asia-solid" transform="translate(47.000000, 47.000000)" fill="#FFFFFF" fill-rule="nonzero">
                        <path d="M17,0 C7.61092742,0 0,7.61092742 0,17 C0,26.3890726 7.61092742,34 17,34 C26.3890726,34 34,26.3890726 34,17 C34,7.61092742 26.3890726,0 17,0 Z M16.4639376,16.5946694 C16.259082,16.9332645 15.8897749,17.1404959 15.4914053,17.1404959 C15.1688818,17.1404959 14.8803828,17.2592149 14.6677299,17.4699587 L14.2665249,17.867562 C14.0453659,18.0867355 14.0453659,18.4428926 14.2665249,18.6620661 L14.6677299,19.0596694 C14.8803828,19.2704132 15.0001772,19.5563223 15.0001772,19.8541736 L15.0001772,20.5123967 C15.0001772,21.1333884 14.4926458,21.6363636 13.8660287,21.6363636 L13.4329257,21.6363636 C13.003367,21.6363636 12.6106681,21.3961157 12.4185717,21.0146694 L10.8151692,17.8373554 C10.6422116,17.4945455 10.1807549,17.4200826 9.90714159,17.6912397 L8.52702463,19.0582645 C8.31437179,19.2690083 8.02587276,19.3877273 7.72532341,19.3877273 L3.29009392,19.3877273 C3.17029949,18.6543388 3.09090909,17.9076033 3.09090909,17.1404959 C3.09090909,9.39355372 9.45064682,3.09090909 17.2677654,3.09090909 C18.7924863,3.09090909 20.259082,3.33747934 21.6363636,3.7807438 L18.0808081,6.48739669 C17.7185894,6.72694215 17.7526139,7.26433884 18.1417686,7.45752066 L18.9094453,7.83756198 C19.2936381,8.02793388 19.5360624,8.41710744 19.5360624,8.84280992 L19.5360624,14.3305785 C19.5360624,14.6410744 19.2822967,14.892562 18.9689881,14.892562 L18.7520822,14.892562 C18.5373029,14.892562 18.3409534,14.772438 18.2452596,14.5820661 C18.1346801,14.3628926 17.8227893,14.3509504 17.6951976,14.5609917 L16.4639376,16.5946694 Z M27.499272,24.8392226 L26.8485329,25.4555367 C26.6445394,25.6487387 26.3677882,25.7575758 26.0794775,25.7575758 L25.0486305,25.7575758 C24.7603197,25.7575758 24.4835685,25.6487387 24.2795751,25.4555367 L23.3949234,24.6176844 C22.9428244,24.1895183 22.286674,24.0174124 21.6664187,24.1643039 L20.220105,24.5069153 C20.1337477,24.5275235 20.0453506,24.5378276 19.9562734,24.5378276 L19.2531759,24.5378276 C18.9648652,24.5378276 18.688114,24.4289905 18.4841205,24.2357886 L17.6742665,23.4687769 C17.5723266,23.3720424 17.5150978,23.2409401 17.5151516,23.1042693 L17.5151516,22.4473827 C17.5151516,22.2367926 17.6504672,22.0474547 17.8571806,21.968886 L20.532215,20.9552199 C20.6668507,20.9043433 20.7946866,20.8380107 20.9123228,20.7587979 L22.5245512,19.671071 C22.6166608,19.6089302 22.7269725,19.575606 22.8400611,19.5757581 L23.6621548,19.5757581 C23.8817878,19.5757581 24.0803414,19.7006953 24.1646587,19.8932533 L24.5284471,20.7208015 C24.5706895,20.8167076 24.6696384,20.8791838 24.7793591,20.8792271 L25.0377508,20.8792271 C25.1587869,20.8792271 25.2655435,20.8032343 25.2988624,20.6937532 L25.5844533,19.761876 C25.6184522,19.6517509 25.7245288,19.5764021 25.8455649,19.5764021 L26.2576318,19.5764021 C26.407907,19.5764021 26.5296231,19.6916793 26.5296231,19.8340047 L26.5296231,20.666705 C26.5296231,20.8032343 26.5867412,20.9346116 26.688738,21.0312126 L27.498592,21.7982243 C27.7025855,21.9914262 27.8175018,22.2535368 27.8175018,22.5265955 L27.8175018,24.1108513 C27.8181818,24.3839101 27.7032655,24.6460207 27.499272,24.8392226 Z" id="Shape"></path>
                    </g>
                </g>
            </g>
        </g>
    </g>
</svg>